<?xml version="1.0" ?><!DOCTYPE svg  PUBLIC '-//W3C//DTD SVG 1.1//EN'  'http://www.w3.org/Graphics/SVG/1.1/DTD/svg11.dtd'><svg enable-background="new 0 0 512 512" height="512px" id="Mobile_x5F_Chat" version="1.1" viewBox="0 0 512 512" width="512px" xml:space="preserve" xmlns="http://www.w3.org/2000/svg" xmlns:xlink="http://www.w3.org/1999/xlink"><path d="M310.666,447.167h-194c-9.941,0-18-8.06-18-18V82.833c0-9.941,8.059-18,18-18h194c9.941,0,18,8.059,18,18  v346.334C328.666,439.107,320.607,447.167,310.666,447.167z" fill="#3F5EAB"/><linearGradient gradientUnits="userSpaceOnUse" id="SVGID_1_" x1="86.1758" x2="341.1589" y1="378.3086" y2="123.3255"><stop offset="0" style="stop-color:#00FFFF"/><stop offset="1" style="stop-color:#FF7BAC"/></linearGradient><rect fill="url(#SVGID_1_)" height="309.3" width="200.667" x="113.333" y="96.167"/><path d="M242.514,419.784h-57.695c-3.95,0-7.152,3.202-7.152,7.152l0,0c0,3.95,3.202,7.152,7.152,7.152h57.695  c3.95,0,7.152-3.202,7.152-7.152l0,0C249.667,422.986,246.464,419.784,242.514,419.784z" fill="#FFFFFF"/><path d="M229.5,77.75c-10.556,0-21.11,0-31.666,0c-4.826,0-4.834,7.5,0,7.5c10.556,0,21.11,0,31.666,0  C234.326,85.25,234.333,77.75,229.5,77.75L229.5,77.75z" fill="#FFFFFF"/><linearGradient gradientUnits="userSpaceOnUse" id="SVGID_2_" x1="305.584" x2="305.584" y1="332.5371" y2="162.6812"><stop offset="0" style="stop-color:#B3B3B3"/><stop offset="0.017" style="stop-color:#B9B9B9"/><stop offset="0.1082" style="stop-color:#D2D2D2"/><stop offset="0.2095" style="stop-color:#E6E6E6"/><stop offset="0.3248" style="stop-color:#F4F4F4"/><stop offset="0.4662" style="stop-color:#FDFDFD"/><stop offset="0.7092" style="stop-color:#FFFFFF"/></linearGradient><path d="M382.75,162.681H228.417c-16.891,0-30.583,13.692-30.583,30.583v76.452  c0,16.891,13.692,30.583,30.583,30.583h32.109l18.611,32.238l18.613-32.238h85c16.891,0,30.584-13.692,30.584-30.583v-76.452  C413.334,176.373,399.641,162.681,382.75,162.681z" fill="url(#SVGID_2_)"/><circle cx="255.25" cy="231.833" fill="#3F5EAB" r="10.334"/><circle cx="306.25" cy="231.833" fill="#3F5EAB" r="10.334"/><circle cx="355.917" cy="231.833" fill="#3F5EAB" r="10.333"/></svg>