<svg width="512" height="512" viewBox="0 0 512 512" fill="none" xmlns="http://www.w3.org/2000/svg">
<path d="M453.543 371.646H58.457V141.9C58.457 136.469 62.859 132.067 68.29 132.067H443.709C449.141 132.067 453.543 136.47 453.543 141.9V371.646Z" fill="#8D56A0"/>
<path d="M289.237 419.02H215.995V467.071H289.237V419.02Z" fill="url(#paint0_linear)"/>
<path d="M358.417 467.07H146.813V477.072H358.417V467.07Z" fill="#CCCCCC"/>
<path d="M434.824 148.31H77.176V355.403H434.824V148.31Z" fill="url(#paint1_linear)"/>
<path d="M428.709 419.02H83.29C69.575 419.02 58.457 407.902 58.457 394.187V371.646H453.543V394.187C453.543 407.901 442.425 419.02 428.709 419.02Z" fill="#E6E6E6"/>
<path d="M161.596 289.566H121.855V343.495H161.596V289.566Z" fill="url(#paint2_linear)"/>
<path d="M237.057 206.039H197.316V343.495H237.057V206.039Z" fill="url(#paint3_linear)"/>
<path d="M312.518 138.73H272.777V343.495H312.518V138.73Z" fill="url(#paint4_linear)"/>
<path d="M389.328 34.928H349.586V343.495H389.328V34.928Z" fill="url(#paint5_linear)"/>
<defs>
<linearGradient id="paint0_linear" x1="252.617" y1="467.07" x2="252.617" y2="419.02" gradientUnits="userSpaceOnUse">
<stop stop-color="white"/>
<stop offset="1" stop-color="#B3B3B3"/>
</linearGradient>
<linearGradient id="paint1_linear" x1="114.815" y1="393.042" x2="397.186" y2="110.672" gradientUnits="userSpaceOnUse">
<stop stop-color="#B3B3B3"/>
<stop offset="0.0161" stop-color="#B7B7B7"/>
<stop offset="0.152" stop-color="#D1D1D1"/>
<stop offset="0.3016" stop-color="#E5E5E5"/>
<stop offset="0.4698" stop-color="#F4F4F4"/>
<stop offset="0.6721" stop-color="#FCFCFC"/>
<stop offset="1" stop-color="white"/>
</linearGradient>
<linearGradient id="paint2_linear" x1="118.309" y1="339.948" x2="165.144" y2="293.114" gradientUnits="userSpaceOnUse">
<stop stop-color="#FF7BAC"/>
<stop offset="1" stop-color="#9E09A2"/>
</linearGradient>
<linearGradient id="paint3_linear" x1="172.888" y1="319.066" x2="261.486" y2="230.468" gradientUnits="userSpaceOnUse">
<stop stop-color="#FF7BAC"/>
<stop offset="1" stop-color="#9E09A2"/>
</linearGradient>
<linearGradient id="paint4_linear" x1="231.522" y1="302.239" x2="353.775" y2="179.986" gradientUnits="userSpaceOnUse">
<stop stop-color="#FF7BAC"/>
<stop offset="1" stop-color="#9E09A2"/>
</linearGradient>
<linearGradient id="paint5_linear" x1="282.381" y1="276.289" x2="456.536" y2="102.134" gradientUnits="userSpaceOnUse">
<stop stop-color="#FF7BAC"/>
<stop offset="1" stop-color="#9E09A2"/>
</linearGradient>
</defs>
</svg>
